<svg width="15" height="14" viewBox="0 0 15 14" fill="none" xmlns="http://www.w3.org/2000/svg">
<path d="M8.65377 1.34025L9.8271 3.68692C9.9871 4.01359 10.4138 4.32692 10.7738 4.38692L12.9004 4.74025C14.2604 4.96691 14.5804 5.95357 13.6004 6.9269L11.9471 8.58023C11.6671 8.86023 11.5138 9.40023 11.6004 9.7869L12.0738 11.8336C12.4471 13.4536 11.5871 14.0802 10.1538 13.2336L8.16043 12.0536C7.80043 11.8402 7.2071 11.8402 6.84043 12.0536L4.84709 13.2336C3.42043 14.0802 2.55376 13.4469 2.92709 11.8336L3.40043 9.7869C3.48709 9.40023 3.33376 8.86023 3.05376 8.58023L1.40043 6.9269C0.427094 5.95357 0.740428 4.96691 2.10043 4.74025L4.22709 4.38692C4.58043 4.32692 5.00709 4.01359 5.16709 3.68692L6.34043 1.34025C6.98043 0.0669206 8.02043 0.0669206 8.65377 1.34025Z" fill="#0068FF"/>
</svg>
