<svg width="8" height="14" viewBox="0 0 8 14" fill="none" xmlns="http://www.w3.org/2000/svg">
<path d="M0.334792 7.77207L6.22087 13.6902C6.31755 13.7883 6.43257 13.8663 6.55929 13.9194C6.68602 13.9726 6.82195 14 6.95923 14C7.09652 14 7.23244 13.9726 7.35917 13.9194C7.4859 13.8663 7.60092 13.7883 7.69759 13.6902C7.89128 13.4939 8 13.2284 8 12.9517C8 12.675 7.89128 12.4095 7.69759 12.2133L2.54987 6.97601L7.69759 1.79114C7.89128 1.59488 8 1.32941 8 1.05269C8 0.775965 7.89128 0.510487 7.69759 0.314234C7.60128 0.215262 7.48642 0.136525 7.35968 0.0825853C7.23294 0.0286445 7.09683 0.000574987 6.95923 -9.09868e-08C6.82164 0.000574963 6.68553 0.0286444 6.55879 0.0825852C6.43204 0.136525 6.31719 0.215262 6.22087 0.314234L0.334792 6.23232C0.229233 6.33041 0.144989 6.44945 0.0873682 6.58196C0.0297476 6.71446 6.24413e-07 6.85754 6.11767e-07 7.0022C5.99121e-07 7.14685 0.0297476 7.28994 0.0873681 7.42244C0.144989 7.55494 0.229233 7.67399 0.334792 7.77207Z" fill="#2A3345"/>
</svg>
