<svg width="22" height="20" viewBox="0 0 22 20" fill="none" xmlns="http://www.w3.org/2000/svg">
<path d="M4.16762 18.5714C4.16762 18.759 4.20321 18.9448 4.27235 19.1181C4.3415 19.2914 4.44285 19.4489 4.57061 19.5816C4.69838 19.7142 4.85006 19.8195 5.01699 19.8913C5.18392 19.963 5.36284 20 5.54352 20C5.90844 20 6.2584 19.8495 6.51644 19.5816C6.6442 19.4489 6.74555 19.2914 6.8147 19.1181C6.88384 18.9448 6.91943 18.759 6.91943 18.5714C6.91943 18.1925 6.77447 17.8292 6.51644 17.5613C6.2584 17.2934 5.90844 17.1429 5.54352 17.1429C5.17861 17.1429 4.82864 17.2934 4.57061 17.5613C4.31258 17.8292 4.16762 18.1925 4.16762 18.5714ZM16.5508 18.5714C16.5508 18.759 16.5864 18.9448 16.6555 19.1181C16.7247 19.2914 16.826 19.4489 16.9538 19.5816C17.0815 19.7142 17.2332 19.8195 17.4001 19.8913C17.5671 19.963 17.746 20 17.9267 20C18.2916 20 18.6416 19.8495 18.8996 19.5816C19.0274 19.4489 19.1287 19.2914 19.1978 19.1181C19.267 18.9448 19.3026 18.759 19.3026 18.5714C19.3026 18.1925 19.1576 17.8292 18.8996 17.5613C18.6416 17.2934 18.2916 17.1429 17.9267 17.1429C17.5618 17.1429 17.2118 17.2934 16.9538 17.5613C16.6957 17.8292 16.5508 18.1925 16.5508 18.5714ZM0 0.714286C0 1.10857 0.308203 1.42857 0.687953 1.42857H2.11752L2.97196 5.22286L4.16762 11.4286C4.16762 11.48 4.19101 11.5243 4.19651 11.5743L3.49618 14.8457C3.45077 15.0571 3.5003 15.2786 3.63102 15.4471C3.76173 15.6171 3.95848 15.7143 4.16762 15.7143H19.7759C20.1556 15.7143 20.4638 15.3943 20.4638 15C20.4638 14.6057 20.1556 14.2857 19.7759 14.2857H5.02618L5.34127 12.8143C5.41006 12.8257 5.47198 12.8571 5.54352 12.8571H18.0849C18.8444 12.8571 19.3026 12.7014 19.6686 11.7857L21.903 4.66857C22.291 3.39286 21.4394 2.85714 20.6785 2.85714H4.16762C4.0603 2.85714 3.96674 2.89571 3.8663 2.92L3.33244 0.551428C3.25952 0.228571 2.98296 0 2.66238 0H0.687953C0.306827 0 0 0.32 0 0.714286ZM4.19514 4.28571H20.5753L18.3794 11.2843C18.3532 11.3457 18.3312 11.39 18.3147 11.42C18.2693 11.4243 18.1977 11.4286 18.0849 11.4286H5.54352V11.2871L5.51738 11.1486L4.19514 4.28571Z" fill="white"/>
</svg>
