<svg width="16" height="16" viewBox="0 0 16 16" fill="none" xmlns="http://www.w3.org/2000/svg">
<g clip-path="url(#clip0_209_19100)">
<path d="M6.10671 7.24658C6.04004 7.23992 5.96004 7.23992 5.88671 7.24658C4.30004 7.19325 3.04004 5.89325 3.04004 4.29325C3.04004 2.65992 4.36004 1.33325 6.00004 1.33325C7.6334 1.33325 8.96006 2.65992 8.96006 4.29325C8.9534 5.89325 7.6934 7.19325 6.10671 7.24658Z" stroke="#808B9F" stroke-width="1.5" stroke-linecap="round" stroke-linejoin="round"/>
<path d="M11.3332 2.33325C11.6665 2.66659 12.6665 3.33325 12.6665 4.99992C12.6665 6.33325 11.6665 6.99992 10.6665 7.33325" stroke="#808B9F" stroke-width="1.5" stroke-linecap="round" stroke-linejoin="round"/>
<path d="M0.666504 13.6666C0.666508 12.9999 1.05317 11.08 2.6665 9.99999C4.5065 8.77999 7.5065 8.77993 9.33317 9.99993C10.9465 11.0733 11.3332 12.9999 11.3332 13.6666" stroke="#808B9F" stroke-width="1.5" stroke-linecap="round" stroke-linejoin="round"/>
<path d="M14.6665 13.6666C14.6665 13.3333 14.5071 12.1885 14.3332 11.6666C13.8887 10.3333 12.6665 9.33325 12.6665 9.33325" stroke="#808B9F" stroke-width="1.5" stroke-linecap="round" stroke-linejoin="round"/>
</g>
<defs>
<clipPath id="clip0_209_19100">
<rect width="16" height="16" fill="white"/>
</clipPath>
</defs>
</svg>
