<svg width="75" height="46" viewBox="0 0 75 46" fill="none" xmlns="http://www.w3.org/2000/svg">
<path fill-rule="evenodd" clip-rule="evenodd" d="M54.9107 9.40636L55.4855 9.30502C50.5929 2.63488 42.1831 -1.06409 33.4856 0.469506C24.7882 2.0031 18.1507 8.35532 15.8345 16.2966L16.4092 16.1952C18.7361 8.55423 25.1714 2.46531 33.5762 0.983318C41.981 -0.498674 50.1108 3.02202 54.9107 9.40636ZM19.5087 35.2508L18.9412 35.3509C23.7782 42.3168 32.3771 46.2267 41.2771 44.6573C50.1772 43.088 56.9202 36.473 59.0831 28.2728L58.5156 28.3728C56.3378 36.2745 49.7952 42.6256 41.1865 44.1435C32.5779 45.6615 24.2577 41.9311 19.5087 35.2508ZM52.6084 29.4144C50.4146 34.2787 45.9319 38.0089 40.2805 39.0054C34.6292 40.0019 29.141 38.0298 25.4158 34.2092L26.0424 34.0987C29.6441 37.6331 34.8416 39.4347 40.1899 38.4916C45.5383 37.5486 49.8062 34.078 51.9818 29.5249L52.6084 29.4144ZM22.4288 15.1338L23.0734 15.0201C25.326 10.7548 29.4547 7.53774 34.5728 6.63527C39.691 5.7328 44.6709 7.34374 48.2465 10.5814L48.8912 10.4678C45.1821 6.94396 39.9073 5.16486 34.4822 6.12146C29.0571 7.07805 24.7089 10.5539 22.4288 15.1338ZM0.491401 20.856L71.3975 8.35335L71.3069 7.83954L0.400802 20.3422L0.491401 20.856ZM3.16432 36.0135L74.0704 23.5109L73.9798 22.9971L3.07372 35.4997L3.16432 36.0135ZM60.5846 15.3592L60.416 15.3889L60.0748 15.4491L59.9062 15.4788L58.7089 21.7163L59.4997 21.5768L59.7855 19.9495L62.2299 19.5185L63.0562 20.9497L63.851 20.8096L60.5846 15.3592ZM61.8872 18.925L59.904 19.2746L60.4137 16.3729L61.8872 18.925ZM59.7813 15.0994L60.352 13.7819L61.2471 13.6241L60.3794 14.9939L59.7813 15.0994ZM13.1533 23.7226L12.9847 23.7524L12.6435 23.8125L12.4749 23.8422L11.2776 30.0797L12.0684 29.9403L12.3542 28.3129L14.7986 27.8819L15.6249 29.3131L16.4197 29.173L13.1533 23.7226ZM14.4559 27.2884L12.4728 27.638L12.9825 24.7363L14.4559 27.2884ZM13.4888 22.1279L13.9984 22.0836C14.0328 22.2789 14.0242 22.4571 13.9725 22.6179C13.9209 22.7788 13.8366 22.9109 13.7196 23.0143C13.6053 23.1173 13.4665 23.1831 13.3033 23.2119C13.1668 23.236 13.0511 23.2371 12.9562 23.2152C12.8608 23.1906 12.7741 23.1604 12.696 23.1245C12.6175 23.0859 12.5361 23.0547 12.4519 23.0309C12.3699 23.004 12.2727 23.0004 12.1603 23.0203C12.0479 23.0401 11.9604 23.0997 11.8979 23.199C11.8381 23.2978 11.8192 23.4101 11.8414 23.5359L11.3354 23.6003C11.301 23.4049 11.3082 23.2271 11.3572 23.0667C11.4084 22.9031 11.4922 22.7683 11.6087 22.6622C11.7248 22.5535 11.8631 22.4849 12.0236 22.4566C12.1387 22.4363 12.2426 22.4387 12.3353 22.4638C12.4302 22.4856 12.521 22.5152 12.6075 22.5523C12.6936 22.5868 12.7817 22.6168 12.8717 22.6423C12.9613 22.6652 13.0596 22.6672 13.1667 22.6483C13.2791 22.6285 13.3665 22.5689 13.429 22.4696C13.4911 22.3676 13.511 22.2537 13.4888 22.1279ZM8.11445 30.6374L7.3076 30.7797L6.89414 30.8526L6.53287 30.9163L6.06218 28.2469L5.41189 28.3616L5.3043 27.7514L5.95459 27.6367L5.50231 25.0717L5.8395 25.0122L6.27704 24.9351L7.15614 24.7801C7.53882 24.7126 7.89938 24.7153 8.23781 24.788C8.57577 24.8581 8.87971 24.9935 9.14965 25.1943C9.42179 25.3919 9.64938 25.6498 9.83241 25.9679C10.015 26.2834 10.1435 26.6525 10.2181 27.0754L10.2797 27.4246C10.3542 27.8474 10.3599 28.2396 10.2967 28.6012C10.2331 28.9601 10.1058 29.2792 9.91502 29.5584C9.72687 29.8371 9.48088 30.0695 9.17704 30.2555C8.87541 30.4384 8.52121 30.5657 8.11445 30.6374ZM8.00332 30.0072L7.19648 30.1495L6.83691 28.1103L7.9689 27.9107L7.86132 27.3005L6.72933 27.5001L6.38887 25.5693L7.26797 25.4143C7.55699 25.3634 7.82082 25.3651 8.05945 25.4196C8.30076 25.4737 8.51506 25.578 8.70236 25.7326C8.88919 25.8845 9.04587 26.0845 9.1724 26.3326C9.29845 26.5781 9.39097 26.868 9.44995 27.2025L9.51295 27.5598C9.58797 27.9853 9.58265 28.3698 9.49697 28.7132C9.41349 29.0536 9.24817 29.3366 9.00099 29.5623C8.75335 29.7853 8.42079 29.9336 8.00332 30.0072ZM21.2407 28.3229L20.322 23.1125L22.2006 22.7813L22.0888 22.1471L20.2102 22.4783L19.4475 22.6128L17.5729 22.9433L17.6847 23.5776L19.5593 23.247L20.478 28.4574L21.2407 28.3229ZM24.2848 25.0006L27.2312 24.4811L27.7075 27.1826L28.4783 27.0467L27.4477 21.2021L26.677 21.338L27.1201 23.8509L24.1737 24.3704L23.7306 21.8576L22.9559 21.9942L23.9864 27.8388L24.7612 27.7022L24.2848 25.0006ZM31.0725 20.563L31.2411 20.5333L34.5075 25.9836L33.7127 26.1238L32.8864 24.6925L30.442 25.1235L30.1562 26.7509L29.3654 26.8903L30.5627 20.6529L30.7313 20.6232L31.0725 20.563ZM30.5606 24.4487L32.5437 24.099L31.0702 21.5469L30.5606 24.4487ZM38.7556 19.2083L39.7861 25.0529L39.0074 25.1902L35.2702 21.2011L36.065 25.709L35.2903 25.8456L34.2597 20.001L35.0345 19.8644L38.7859 23.8634L37.9889 19.3434L38.7556 19.2083ZM44.4038 21.4531L41.4574 21.9727L41.9337 24.6742L41.159 24.8108L40.1284 18.9662L40.9031 18.8296L41.3462 21.3424L44.2926 20.8229L43.8495 18.31L44.6203 18.1742L45.6508 24.0188L44.8801 24.1547L44.4038 21.4531ZM50.1472 17.8536L51.0659 23.0639L50.3032 23.1984L49.3845 17.988L47.5099 18.3186L47.3981 17.6844L49.2727 17.3538L50.0354 17.2193L51.914 16.8881L52.0258 17.5223L50.1472 17.8536ZM57.7164 19.0685L57.6512 18.6992C57.5739 18.2603 57.4485 17.8782 57.2753 17.5528C57.1042 17.2242 56.8928 16.9566 56.6411 16.7499C56.3917 16.54 56.1111 16.3963 55.7994 16.3189C55.4904 16.2409 55.158 16.2333 54.8021 16.296C54.4568 16.3569 54.1511 16.4771 53.8847 16.6565C53.621 16.8354 53.4065 17.0664 53.2412 17.3494C53.0754 17.6297 52.9656 17.954 52.9119 18.3222C52.8603 18.6872 52.8733 19.0892 52.9507 19.528L53.0158 19.8974C53.0932 20.3362 53.2201 20.7195 53.3965 21.0471C53.5729 21.3747 53.7869 21.6418 54.0386 21.8486C54.293 22.0548 54.5746 22.1969 54.8836 22.2749C55.1953 22.3524 55.5237 22.3607 55.869 22.2998C56.2249 22.237 56.5347 22.1162 56.7984 21.9373C57.0648 21.7578 57.2795 21.5282 57.4426 21.2483C57.6057 20.9685 57.7115 20.6449 57.7599 20.2777C57.8082 19.9105 57.7937 19.5074 57.7164 19.0685ZM56.8831 18.8264L56.9496 19.2037C57.0115 19.5543 57.0314 19.8708 57.0095 20.1534C56.9871 20.4333 56.9239 20.6776 56.82 20.8863C56.7183 21.0919 56.578 21.2587 56.3992 21.3868C56.2203 21.5149 56.0051 21.6011 55.7536 21.6455C55.5127 21.688 55.2864 21.6796 55.0745 21.6204C54.8653 21.5607 54.6738 21.4524 54.4998 21.2954C54.3281 21.1353 54.1812 20.928 54.0591 20.6736C53.9365 20.4166 53.8443 20.1127 53.7825 19.7622L53.7159 19.3848C53.6546 19.0369 53.6378 18.7226 53.6655 18.4418C53.6933 18.1609 53.7594 17.9175 53.8638 17.7115C53.9708 17.5049 54.1124 17.3379 54.2886 17.2102C54.4674 17.0821 54.6773 16.9968 54.9181 16.9544C55.167 16.9105 55.3974 16.9181 55.6093 16.9774C55.8238 17.0361 56.0154 17.1444 56.1839 17.3023C56.3525 17.4603 56.4952 17.6669 56.6119 17.9222C56.7314 18.1771 56.8218 18.4785 56.8831 18.8264ZM69.1296 19.8788L68.0991 14.0342L67.3324 14.1694L68.1293 18.6893L64.3779 14.6903L63.6032 14.8269L64.6338 20.6716L65.4085 20.535L64.6136 16.0271L68.3509 20.0161L69.1296 19.8788Z" fill="#C1C7D0"/>
</svg>
