<svg width="20" height="20" viewBox="0 0 20 20" fill="none" xmlns="http://www.w3.org/2000/svg">
<path d="M18.3332 9.99996C18.3332 14.6 14.5998 18.3333 9.99984 18.3333C5.39984 18.3333 1.6665 14.6 1.6665 9.99996C1.6665 5.39996 5.39984 1.66663 9.99984 1.66663C14.5998 1.66663 18.3332 5.39996 18.3332 9.99996Z" stroke="#808B9F" stroke-width="1.5" stroke-linecap="round" stroke-linejoin="round"/>
<path d="M10.0002 10.4167V10.2223C10.0002 9.59264 10.4168 9.26251 10.8436 8.99079C11.37 8.6556 11.6668 7.98154 11.6668 7.37044C11.6668 6.51858 10.9239 5.83337 10.0002 5.83337C9.07649 5.83337 8.3335 6.51858 8.3335 7.37044" stroke="#808B9F" stroke-width="1.5" stroke-linecap="round" stroke-linejoin="round"/>
<mask id="path-3-inside-1_928_4976" fill="white">
<ellipse cx="9.99984" cy="13.3333" rx="0.833333" ry="0.833333"/>
</mask>
<ellipse cx="9.99984" cy="13.3333" rx="0.833333" ry="0.833333" fill="#0A1F44"/>
<path d="M9.83317 13.3333C9.83317 13.2413 9.90779 13.1667 9.99984 13.1667V15.1667C11.0124 15.1667 11.8332 14.3459 11.8332 13.3333H9.83317ZM9.99984 13.1667C10.0919 13.1667 10.1665 13.2413 10.1665 13.3333H8.1665C8.1665 14.3459 8.98731 15.1667 9.99984 15.1667V13.1667ZM10.1665 13.3333C10.1665 13.4254 10.0919 13.5 9.99984 13.5V11.5C8.98731 11.5 8.1665 12.3208 8.1665 13.3333H10.1665ZM9.99984 13.5C9.90779 13.5 9.83317 13.4254 9.83317 13.3333H11.8332C11.8332 12.3208 11.0124 11.5 9.99984 11.5V13.5Z" fill="#2A3345" mask="url(#path-3-inside-1_928_4976)"/>
</svg>
