<svg width="8" height="4" viewBox="0 0 8 4" fill="none" xmlns="http://www.w3.org/2000/svg">
<path d="M7.14635 0.186209C7.02786 0.0669431 6.86757 0 6.70049 0C6.53342 0 6.37313 0.0669431 6.25464 0.186209L3.98427 2.45305L1.74552 0.186209C1.62703 0.0669431 1.46674 0 1.29967 0C1.13259 0 0.972306 0.0669431 0.853815 0.186209C0.79454 0.245738 0.747492 0.316561 0.715385 0.394593C0.683278 0.472626 0.666748 0.556323 0.666748 0.640857C0.666748 0.72539 0.683278 0.809088 0.715385 0.88712C0.747492 0.965153 0.79454 1.03598 0.853815 1.0955L3.53526 3.81059C3.59405 3.8706 3.66399 3.91824 3.74106 3.95075C3.81812 3.98326 3.90078 4 3.98427 4C4.06776 4 4.15042 3.98326 4.22748 3.95075C4.30455 3.91824 4.37449 3.8706 4.43329 3.81059L7.14635 1.0955C7.20562 1.03598 7.25267 0.965153 7.28478 0.88712C7.31688 0.809088 7.33342 0.72539 7.33342 0.640857C7.33342 0.556323 7.31688 0.472626 7.28478 0.394593C7.25267 0.316561 7.20562 0.245738 7.14635 0.186209Z" fill="white"/>
</svg>
