<svg width="16" height="16" viewBox="0 0 16 16" fill="none" xmlns="http://www.w3.org/2000/svg">
<path d="M9.15377 2.34025L10.3271 4.68692C10.4871 5.01359 10.9138 5.32692 11.2738 5.38692L13.4004 5.74025C14.7604 5.96691 15.0804 6.95357 14.1004 7.9269L12.4471 9.58023C12.1671 9.86023 12.0138 10.4002 12.1004 10.7869L12.5738 12.8336C12.9471 14.4536 12.0871 15.0802 10.6538 14.2336L8.66043 13.0536C8.30043 12.8402 7.7071 12.8402 7.34043 13.0536L5.34709 14.2336C3.92043 15.0802 3.05376 14.4469 3.42709 12.8336L3.90043 10.7869C3.98709 10.4002 3.83376 9.86023 3.55376 9.58023L1.90043 7.9269C0.927094 6.95357 1.24043 5.96691 2.60043 5.74025L4.72709 5.38692C5.08043 5.32692 5.50709 5.01359 5.66709 4.68692L6.84043 2.34025C7.48043 1.06692 8.52043 1.06692 9.15377 2.34025Z" fill="#F8AC2F"/>
</svg>
